<?xml version="1.0" encoding="UTF-8"?>
<svg xmlns="http://www.w3.org/2000/svg" width="2039.9999999999998" height="2035.6961213362715" viewBox="679.43 759.43 98590.14 98382.14">
  <rect x="1646" y="1726" width="96657" height="96449" fill="white"/>
  <polygon points="98302,50003 98302,51224 98168,51224 98168,52447 98186,52447 98186,53636 97714,53636 97714,54871 97875,54871 97875,56010 97164,56010 97164,57213 97068,57213 97068,58476 97274,58476 97274,59728 97321,59728 97321,60896 96940,60896 96940,62063 96580,62063 96580,63178 96044,63178 96044,64395 95871,64395 95871,65536 95443,65536 95443,66593 94793,66593 94793,67818 94599,67818 94599,68765 93720,68765 93720,69885 93270,69885 93270,70946 92694,70946 92694,72389 92855,72389 92855,73409 92168,73409 92168,74440 91512,74440 91512,75135 90319,75135 90319,76590 90340,76590 90340,77609 89661,77609 89661,78603 88946,78603 88946,79150 87653,79150 87653,80056 86856,80056 86856,80969 86069,80969 86069,82283 85727,82283 85727,82920 84627,82920 84627,83969 83964,83969 83964,84620 82904,84620 82904,85831 82367,85831 82367,86713 81513,86713 81513,87151 80288,87151 80288,87866 79306,87866 79306,88852 78525,88852 78525,89142 77239,89142 77239,89703 76163,89703 76163,90454 75211,90454 75211,91706 74547,91706 74547,92126 73378,92126 73378,92726 72314,92726 72314,93055 71115,93055 71115,93445 69958,93445 69958,93971 68866,93971 68866,94264 67677,94264 67677,95294 66771,95294 66771,95514 65553,95514 65553,96011 64432,96011 64432,96160 63204,96160 63204,96700 62088,96700 62088,97050 60914,97050 60914,96668 59587,96668 59587,97561 58520,97561 58520,97113 57214,97113 57214,97472 56042,97472 56042,97372 54813,97372 54813,98058 53656,98058 53656,97675 52414,97675 52414,98174 51217,98174 51217,97538 49996,97538 49996,97777 48785,97777 48785,97710 47577,97710 47577,97588 46372,97588 46372,98126 45102,98126 45102,97628 43930,97628 43930,97893 42659,97893 42659,96979 41576,96979 41576,97336 40268,97336 40268,96764 39144,96764 39144,96153 38046,96153 38046,96044 36821,96044 36821,96133 35522,96133 35522,95129 34570,95129 34570,94715 33435,94715 33435,94476 32230,94476 32230,94173 31039,94173 31039,93855 29845,93855 29845,93309 28751,93309 28751,92364 27866,92364 27866,91768 26813,91768 26813,90974 25875,90974 25875,90656 24654,90656 24654,90390 23376,90390 23376,89775 22311,89775 22311,88714 21567,88714 21567,88174 20446,88174 20446,87381 19515,87381 19515,86667 18517,86667 18517,85391 18020,85391 18020,84587 17117,84587 17117,84173 15821,84173 15821,83232 15034,83232 15034,82204 14349,82204 14349,81581 13206,81581 13206,80333 12794,80333 12794,79174 12304,79174 12304,78538 11129,78538 11129,77208 10902,77208 10902,76567 9682,76567 9682,75520 9049,75520 9049,74331 8659,74331 8659,73210 8176,73210 8176,72066 7748,72066 7748,71330 6507,71330 6507,70084 6280,70084 6280,68785 6215,68785 6215,67814 5393,67814 5393,66621 5112,66621 5112,65682 4109,65682 4109,64454 3918,64454 3918,63076 4289,63076 4289,62035 3502,62035 3502,60858 3190,60858 3190,59573 3400,59573 3400,58531 2382,58531 2382,57313 2238,57313 2238,56105 2034,56105 2034,54836 2406,54836 2406,53666 1803,53666 1803,52448 1646,52448 1646,51221 1674,51221 1674,50003 94601,50003 94601,48785 2222,48785 2222,47553 1818,47553 1818,46337 1944,46337 1944,45177 2609,45177 2609,43968 2666,43968 2666,42764 2790,42764 2790,41575 3015,41575 3015,40249 2568,40249 2568,39132 3184,39132 3184,37906 3307,37906 3307,36927 4324,36927 4324,35567 4011,35567 4011,34363 4265,34363 4265,33197 4640,33197 4640,32194 5435,32194 5435,31142 6065,31142 6065,30099 6695,30099 6695,28705 6596,28705 6596,27761 7433,27761 7433,26844 8288,26844 8288,25449 8300,25449 8300,24396 8928,24396 8928,23840 10314,23840 10314,22721 10814,22721 10814,21729 11506,21729 11506,20366 11722,20366 11722,19560 12674,19560 12674,18574 13398,18574 13398,17557 14096,17557 14096,17268 15571,17268 15571,15972 15976,15972 15976,15218 16942,15218 16942,14403 17844,14403 17844,13244 18451,13244 18451,13003 19837,13003 19837,12032 20615,12032 20615,11292 21581,11292 21581,10689 22643,10689 22643,10214 23783,10214 23783,9256 24608,9256 24608,8332 25475,8332 25475,7886 26628,7886 26628,7649 27881,7649 27881,7321 29068,7321 29068,6086 29826,6086 29826,6310 31254,6310 31254,5316 32154,5316 32154,4703 33227,4703 33227,4507 34453,4507 34453,4398 35695,4398 35695,3408 36672,3408 36672,3522 37969,3522 37969,3685 39256,3685 39256,3353 40417,3353 40417,2886 41559,2886 41559,2933 42793,2933 42793,2141 43908,2141 43908,2680 45191,2680 45191,2586 46392,2586 46392,2000 47569,2000 47569,2086 48789,2086 48789,1768 50003,1768 50003,2094 51217,2094 51217,1726 52451,1726 52451,2521 53618,2521 53618,2184 54865,2184 54865,2001 56116,2001 56116,2192 57327,2192 57327,2984 58430,2984 58430,2640 59735,2640 59735,3676 60752,3676 60752,3891 61941,3891 61941,4311 63076,4311 63076,4651 64231,4651 64231,4383 65595,4383 65595,4870 66717,4870 66717,5195 67900,5195 67900,6130 68829,6130 68829,6542 69971,6542 69971,6459 71361,6459 71361,7583 72160,7583 72160,7855 73395,7855 73395,8368 74511,8368 74511,9474 75263,9474 75263,9687 76572,9687 76572,10635 77402,10635 77402,11650 78164,11650 78164,11759 79604,11759 79604,12930 80230,12930 80230,13733 81138,13733 81138,14741 81859,14741 81859,15311 82978,15311 82978,16332 83672,16332 83672,17169 84542,17169 84542,17714 85740,17714 85740,18612 86566,18612 86566,19436 87488,19436 87488,20859 87651,20859 87651,21393 88962,21393 88962,22570 89415,22570 89415,23635 90009,23635 90009,24534 90862,24534 90862,25593 91467,25593 91467,26849 91716,26849 91716,27581 92925,27581 92925,28721 93386,28721 93386,29770 94036,29770 94036,31222 93764,31222 93764,32377 94126,32377 94126,33274 95169,33274 95169,34393 95668,34393 95668,35730 95490,35730 95490,36882 95855,36882 95855,38072 96081,38072 96081,39252 96327,39252 96327,40429 96585,40429 96585,41595 96912,41595 96912,42771 97206,42771 97206,43958 97461,43958 97461,45166 97568,45166 97568,46336 98146,46336 98146,47589 97604,47589 97604,48791 97828,48791 97828,50003" fill="none" stroke="green" stroke-width="96.65700000000001"/>
  <g id="vertices" fill="red">
    <circle cx="98302" cy="50003" r="144.9855"/>
    <circle cx="98302" cy="51224" r="144.9855"/>
    <circle cx="98168" cy="51224" r="144.9855"/>
    <circle cx="98168" cy="52447" r="144.9855"/>
    <circle cx="98186" cy="52447" r="144.9855"/>
    <circle cx="98186" cy="53636" r="144.9855"/>
    <circle cx="97714" cy="53636" r="144.9855"/>
    <circle cx="97714" cy="54871" r="144.9855"/>
    <circle cx="97875" cy="54871" r="144.9855"/>
    <circle cx="97875" cy="56010" r="144.9855"/>
    <circle cx="97164" cy="56010" r="144.9855"/>
    <circle cx="97164" cy="57213" r="144.9855"/>
    <circle cx="97068" cy="57213" r="144.9855"/>
    <circle cx="97068" cy="58476" r="144.9855"/>
    <circle cx="97274" cy="58476" r="144.9855"/>
    <circle cx="97274" cy="59728" r="144.9855"/>
    <circle cx="97321" cy="59728" r="144.9855"/>
    <circle cx="97321" cy="60896" r="144.9855"/>
    <circle cx="96940" cy="60896" r="144.9855"/>
    <circle cx="96940" cy="62063" r="144.9855"/>
    <circle cx="96580" cy="62063" r="144.9855"/>
    <circle cx="96580" cy="63178" r="144.9855"/>
    <circle cx="96044" cy="63178" r="144.9855"/>
    <circle cx="96044" cy="64395" r="144.9855"/>
    <circle cx="95871" cy="64395" r="144.9855"/>
    <circle cx="95871" cy="65536" r="144.9855"/>
    <circle cx="95443" cy="65536" r="144.9855"/>
    <circle cx="95443" cy="66593" r="144.9855"/>
    <circle cx="94793" cy="66593" r="144.9855"/>
    <circle cx="94793" cy="67818" r="144.9855"/>
    <circle cx="94599" cy="67818" r="144.9855"/>
    <circle cx="94599" cy="68765" r="144.9855"/>
    <circle cx="93720" cy="68765" r="144.9855"/>
    <circle cx="93720" cy="69885" r="144.9855"/>
    <circle cx="93270" cy="69885" r="144.9855"/>
    <circle cx="93270" cy="70946" r="144.9855"/>
    <circle cx="92694" cy="70946" r="144.9855"/>
    <circle cx="92694" cy="72389" r="144.9855"/>
    <circle cx="92855" cy="72389" r="144.9855"/>
    <circle cx="92855" cy="73409" r="144.9855"/>
    <circle cx="92168" cy="73409" r="144.9855"/>
    <circle cx="92168" cy="74440" r="144.9855"/>
    <circle cx="91512" cy="74440" r="144.9855"/>
    <circle cx="91512" cy="75135" r="144.9855"/>
    <circle cx="90319" cy="75135" r="144.9855"/>
    <circle cx="90319" cy="76590" r="144.9855"/>
    <circle cx="90340" cy="76590" r="144.9855"/>
    <circle cx="90340" cy="77609" r="144.9855"/>
    <circle cx="89661" cy="77609" r="144.9855"/>
    <circle cx="89661" cy="78603" r="144.9855"/>
    <circle cx="88946" cy="78603" r="144.9855"/>
    <circle cx="88946" cy="79150" r="144.9855"/>
    <circle cx="87653" cy="79150" r="144.9855"/>
    <circle cx="87653" cy="80056" r="144.9855"/>
    <circle cx="86856" cy="80056" r="144.9855"/>
    <circle cx="86856" cy="80969" r="144.9855"/>
    <circle cx="86069" cy="80969" r="144.9855"/>
    <circle cx="86069" cy="82283" r="144.9855"/>
    <circle cx="85727" cy="82283" r="144.9855"/>
    <circle cx="85727" cy="82920" r="144.9855"/>
    <circle cx="84627" cy="82920" r="144.9855"/>
    <circle cx="84627" cy="83969" r="144.9855"/>
    <circle cx="83964" cy="83969" r="144.9855"/>
    <circle cx="83964" cy="84620" r="144.9855"/>
    <circle cx="82904" cy="84620" r="144.9855"/>
    <circle cx="82904" cy="85831" r="144.9855"/>
    <circle cx="82367" cy="85831" r="144.9855"/>
    <circle cx="82367" cy="86713" r="144.9855"/>
    <circle cx="81513" cy="86713" r="144.9855"/>
    <circle cx="81513" cy="87151" r="144.9855"/>
    <circle cx="80288" cy="87151" r="144.9855"/>
    <circle cx="80288" cy="87866" r="144.9855"/>
    <circle cx="79306" cy="87866" r="144.9855"/>
    <circle cx="79306" cy="88852" r="144.9855"/>
    <circle cx="78525" cy="88852" r="144.9855"/>
    <circle cx="78525" cy="89142" r="144.9855"/>
    <circle cx="77239" cy="89142" r="144.9855"/>
    <circle cx="77239" cy="89703" r="144.9855"/>
    <circle cx="76163" cy="89703" r="144.9855"/>
    <circle cx="76163" cy="90454" r="144.9855"/>
    <circle cx="75211" cy="90454" r="144.9855"/>
    <circle cx="75211" cy="91706" r="144.9855"/>
    <circle cx="74547" cy="91706" r="144.9855"/>
    <circle cx="74547" cy="92126" r="144.9855"/>
    <circle cx="73378" cy="92126" r="144.9855"/>
    <circle cx="73378" cy="92726" r="144.9855"/>
    <circle cx="72314" cy="92726" r="144.9855"/>
    <circle cx="72314" cy="93055" r="144.9855"/>
    <circle cx="71115" cy="93055" r="144.9855"/>
    <circle cx="71115" cy="93445" r="144.9855"/>
    <circle cx="69958" cy="93445" r="144.9855"/>
    <circle cx="69958" cy="93971" r="144.9855"/>
    <circle cx="68866" cy="93971" r="144.9855"/>
    <circle cx="68866" cy="94264" r="144.9855"/>
    <circle cx="67677" cy="94264" r="144.9855"/>
    <circle cx="67677" cy="95294" r="144.9855"/>
    <circle cx="66771" cy="95294" r="144.9855"/>
    <circle cx="66771" cy="95514" r="144.9855"/>
    <circle cx="65553" cy="95514" r="144.9855"/>
    <circle cx="65553" cy="96011" r="144.9855"/>
    <circle cx="64432" cy="96011" r="144.9855"/>
    <circle cx="64432" cy="96160" r="144.9855"/>
    <circle cx="63204" cy="96160" r="144.9855"/>
    <circle cx="63204" cy="96700" r="144.9855"/>
    <circle cx="62088" cy="96700" r="144.9855"/>
    <circle cx="62088" cy="97050" r="144.9855"/>
    <circle cx="60914" cy="97050" r="144.9855"/>
    <circle cx="60914" cy="96668" r="144.9855"/>
    <circle cx="59587" cy="96668" r="144.9855"/>
    <circle cx="59587" cy="97561" r="144.9855"/>
    <circle cx="58520" cy="97561" r="144.9855"/>
    <circle cx="58520" cy="97113" r="144.9855"/>
    <circle cx="57214" cy="97113" r="144.9855"/>
    <circle cx="57214" cy="97472" r="144.9855"/>
    <circle cx="56042" cy="97472" r="144.9855"/>
    <circle cx="56042" cy="97372" r="144.9855"/>
    <circle cx="54813" cy="97372" r="144.9855"/>
    <circle cx="54813" cy="98058" r="144.9855"/>
    <circle cx="53656" cy="98058" r="144.9855"/>
    <circle cx="53656" cy="97675" r="144.9855"/>
    <circle cx="52414" cy="97675" r="144.9855"/>
    <circle cx="52414" cy="98174" r="144.9855"/>
    <circle cx="51217" cy="98174" r="144.9855"/>
    <circle cx="51217" cy="97538" r="144.9855"/>
    <circle cx="49996" cy="97538" r="144.9855"/>
    <circle cx="49996" cy="97777" r="144.9855"/>
    <circle cx="48785" cy="97777" r="144.9855"/>
    <circle cx="48785" cy="97710" r="144.9855"/>
    <circle cx="47577" cy="97710" r="144.9855"/>
    <circle cx="47577" cy="97588" r="144.9855"/>
    <circle cx="46372" cy="97588" r="144.9855"/>
    <circle cx="46372" cy="98126" r="144.9855"/>
    <circle cx="45102" cy="98126" r="144.9855"/>
    <circle cx="45102" cy="97628" r="144.9855"/>
    <circle cx="43930" cy="97628" r="144.9855"/>
    <circle cx="43930" cy="97893" r="144.9855"/>
    <circle cx="42659" cy="97893" r="144.9855"/>
    <circle cx="42659" cy="96979" r="144.9855"/>
    <circle cx="41576" cy="96979" r="144.9855"/>
    <circle cx="41576" cy="97336" r="144.9855"/>
    <circle cx="40268" cy="97336" r="144.9855"/>
    <circle cx="40268" cy="96764" r="144.9855"/>
    <circle cx="39144" cy="96764" r="144.9855"/>
    <circle cx="39144" cy="96153" r="144.9855"/>
    <circle cx="38046" cy="96153" r="144.9855"/>
    <circle cx="38046" cy="96044" r="144.9855"/>
    <circle cx="36821" cy="96044" r="144.9855"/>
    <circle cx="36821" cy="96133" r="144.9855"/>
    <circle cx="35522" cy="96133" r="144.9855"/>
    <circle cx="35522" cy="95129" r="144.9855"/>
    <circle cx="34570" cy="95129" r="144.9855"/>
    <circle cx="34570" cy="94715" r="144.9855"/>
    <circle cx="33435" cy="94715" r="144.9855"/>
    <circle cx="33435" cy="94476" r="144.9855"/>
    <circle cx="32230" cy="94476" r="144.9855"/>
    <circle cx="32230" cy="94173" r="144.9855"/>
    <circle cx="31039" cy="94173" r="144.9855"/>
    <circle cx="31039" cy="93855" r="144.9855"/>
    <circle cx="29845" cy="93855" r="144.9855"/>
    <circle cx="29845" cy="93309" r="144.9855"/>
    <circle cx="28751" cy="93309" r="144.9855"/>
    <circle cx="28751" cy="92364" r="144.9855"/>
    <circle cx="27866" cy="92364" r="144.9855"/>
    <circle cx="27866" cy="91768" r="144.9855"/>
    <circle cx="26813" cy="91768" r="144.9855"/>
    <circle cx="26813" cy="90974" r="144.9855"/>
    <circle cx="25875" cy="90974" r="144.9855"/>
    <circle cx="25875" cy="90656" r="144.9855"/>
    <circle cx="24654" cy="90656" r="144.9855"/>
    <circle cx="24654" cy="90390" r="144.9855"/>
    <circle cx="23376" cy="90390" r="144.9855"/>
    <circle cx="23376" cy="89775" r="144.9855"/>
    <circle cx="22311" cy="89775" r="144.9855"/>
    <circle cx="22311" cy="88714" r="144.9855"/>
    <circle cx="21567" cy="88714" r="144.9855"/>
    <circle cx="21567" cy="88174" r="144.9855"/>
    <circle cx="20446" cy="88174" r="144.9855"/>
    <circle cx="20446" cy="87381" r="144.9855"/>
    <circle cx="19515" cy="87381" r="144.9855"/>
    <circle cx="19515" cy="86667" r="144.9855"/>
    <circle cx="18517" cy="86667" r="144.9855"/>
    <circle cx="18517" cy="85391" r="144.9855"/>
    <circle cx="18020" cy="85391" r="144.9855"/>
    <circle cx="18020" cy="84587" r="144.9855"/>
    <circle cx="17117" cy="84587" r="144.9855"/>
    <circle cx="17117" cy="84173" r="144.9855"/>
    <circle cx="15821" cy="84173" r="144.9855"/>
    <circle cx="15821" cy="83232" r="144.9855"/>
    <circle cx="15034" cy="83232" r="144.9855"/>
    <circle cx="15034" cy="82204" r="144.9855"/>
    <circle cx="14349" cy="82204" r="144.9855"/>
    <circle cx="14349" cy="81581" r="144.9855"/>
    <circle cx="13206" cy="81581" r="144.9855"/>
    <circle cx="13206" cy="80333" r="144.9855"/>
    <circle cx="12794" cy="80333" r="144.9855"/>
    <circle cx="12794" cy="79174" r="144.9855"/>
    <circle cx="12304" cy="79174" r="144.9855"/>
    <circle cx="12304" cy="78538" r="144.9855"/>
    <circle cx="11129" cy="78538" r="144.9855"/>
    <circle cx="11129" cy="77208" r="144.9855"/>
    <circle cx="10902" cy="77208" r="144.9855"/>
    <circle cx="10902" cy="76567" r="144.9855"/>
    <circle cx="9682" cy="76567" r="144.9855"/>
    <circle cx="9682" cy="75520" r="144.9855"/>
    <circle cx="9049" cy="75520" r="144.9855"/>
    <circle cx="9049" cy="74331" r="144.9855"/>
    <circle cx="8659" cy="74331" r="144.9855"/>
    <circle cx="8659" cy="73210" r="144.9855"/>
    <circle cx="8176" cy="73210" r="144.9855"/>
    <circle cx="8176" cy="72066" r="144.9855"/>
    <circle cx="7748" cy="72066" r="144.9855"/>
    <circle cx="7748" cy="71330" r="144.9855"/>
    <circle cx="6507" cy="71330" r="144.9855"/>
    <circle cx="6507" cy="70084" r="144.9855"/>
    <circle cx="6280" cy="70084" r="144.9855"/>
    <circle cx="6280" cy="68785" r="144.9855"/>
    <circle cx="6215" cy="68785" r="144.9855"/>
    <circle cx="6215" cy="67814" r="144.9855"/>
    <circle cx="5393" cy="67814" r="144.9855"/>
    <circle cx="5393" cy="66621" r="144.9855"/>
    <circle cx="5112" cy="66621" r="144.9855"/>
    <circle cx="5112" cy="65682" r="144.9855"/>
    <circle cx="4109" cy="65682" r="144.9855"/>
    <circle cx="4109" cy="64454" r="144.9855"/>
    <circle cx="3918" cy="64454" r="144.9855"/>
    <circle cx="3918" cy="63076" r="144.9855"/>
    <circle cx="4289" cy="63076" r="144.9855"/>
    <circle cx="4289" cy="62035" r="144.9855"/>
    <circle cx="3502" cy="62035" r="144.9855"/>
    <circle cx="3502" cy="60858" r="144.9855"/>
    <circle cx="3190" cy="60858" r="144.9855"/>
    <circle cx="3190" cy="59573" r="144.9855"/>
    <circle cx="3400" cy="59573" r="144.9855"/>
    <circle cx="3400" cy="58531" r="144.9855"/>
    <circle cx="2382" cy="58531" r="144.9855"/>
    <circle cx="2382" cy="57313" r="144.9855"/>
    <circle cx="2238" cy="57313" r="144.9855"/>
    <circle cx="2238" cy="56105" r="144.9855"/>
    <circle cx="2034" cy="56105" r="144.9855"/>
    <circle cx="2034" cy="54836" r="144.9855"/>
    <circle cx="2406" cy="54836" r="144.9855"/>
    <circle cx="2406" cy="53666" r="144.9855"/>
    <circle cx="1803" cy="53666" r="144.9855"/>
    <circle cx="1803" cy="52448" r="144.9855"/>
    <circle cx="1646" cy="52448" r="144.9855"/>
    <circle cx="1646" cy="51221" r="144.9855"/>
    <circle cx="1674" cy="51221" r="144.9855"/>
    <circle cx="1674" cy="50003" r="144.9855"/>
    <circle cx="94601" cy="50003" r="144.9855"/>
    <circle cx="94601" cy="48785" r="144.9855"/>
    <circle cx="2222" cy="48785" r="144.9855"/>
    <circle cx="2222" cy="47553" r="144.9855"/>
    <circle cx="1818" cy="47553" r="144.9855"/>
    <circle cx="1818" cy="46337" r="144.9855"/>
    <circle cx="1944" cy="46337" r="144.9855"/>
    <circle cx="1944" cy="45177" r="144.9855"/>
    <circle cx="2609" cy="45177" r="144.9855"/>
    <circle cx="2609" cy="43968" r="144.9855"/>
    <circle cx="2666" cy="43968" r="144.9855"/>
    <circle cx="2666" cy="42764" r="144.9855"/>
    <circle cx="2790" cy="42764" r="144.9855"/>
    <circle cx="2790" cy="41575" r="144.9855"/>
    <circle cx="3015" cy="41575" r="144.9855"/>
    <circle cx="3015" cy="40249" r="144.9855"/>
    <circle cx="2568" cy="40249" r="144.9855"/>
    <circle cx="2568" cy="39132" r="144.9855"/>
    <circle cx="3184" cy="39132" r="144.9855"/>
    <circle cx="3184" cy="37906" r="144.9855"/>
    <circle cx="3307" cy="37906" r="144.9855"/>
    <circle cx="3307" cy="36927" r="144.9855"/>
    <circle cx="4324" cy="36927" r="144.9855"/>
    <circle cx="4324" cy="35567" r="144.9855"/>
    <circle cx="4011" cy="35567" r="144.9855"/>
    <circle cx="4011" cy="34363" r="144.9855"/>
    <circle cx="4265" cy="34363" r="144.9855"/>
    <circle cx="4265" cy="33197" r="144.9855"/>
    <circle cx="4640" cy="33197" r="144.9855"/>
    <circle cx="4640" cy="32194" r="144.9855"/>
    <circle cx="5435" cy="32194" r="144.9855"/>
    <circle cx="5435" cy="31142" r="144.9855"/>
    <circle cx="6065" cy="31142" r="144.9855"/>
    <circle cx="6065" cy="30099" r="144.9855"/>
    <circle cx="6695" cy="30099" r="144.9855"/>
    <circle cx="6695" cy="28705" r="144.9855"/>
    <circle cx="6596" cy="28705" r="144.9855"/>
    <circle cx="6596" cy="27761" r="144.9855"/>
    <circle cx="7433" cy="27761" r="144.9855"/>
    <circle cx="7433" cy="26844" r="144.9855"/>
    <circle cx="8288" cy="26844" r="144.9855"/>
    <circle cx="8288" cy="25449" r="144.9855"/>
    <circle cx="8300" cy="25449" r="144.9855"/>
    <circle cx="8300" cy="24396" r="144.9855"/>
    <circle cx="8928" cy="24396" r="144.9855"/>
    <circle cx="8928" cy="23840" r="144.9855"/>
    <circle cx="10314" cy="23840" r="144.9855"/>
    <circle cx="10314" cy="22721" r="144.9855"/>
    <circle cx="10814" cy="22721" r="144.9855"/>
    <circle cx="10814" cy="21729" r="144.9855"/>
    <circle cx="11506" cy="21729" r="144.9855"/>
    <circle cx="11506" cy="20366" r="144.9855"/>
    <circle cx="11722" cy="20366" r="144.9855"/>
    <circle cx="11722" cy="19560" r="144.9855"/>
    <circle cx="12674" cy="19560" r="144.9855"/>
    <circle cx="12674" cy="18574" r="144.9855"/>
    <circle cx="13398" cy="18574" r="144.9855"/>
    <circle cx="13398" cy="17557" r="144.9855"/>
    <circle cx="14096" cy="17557" r="144.9855"/>
    <circle cx="14096" cy="17268" r="144.9855"/>
    <circle cx="15571" cy="17268" r="144.9855"/>
    <circle cx="15571" cy="15972" r="144.9855"/>
    <circle cx="15976" cy="15972" r="144.9855"/>
    <circle cx="15976" cy="15218" r="144.9855"/>
    <circle cx="16942" cy="15218" r="144.9855"/>
    <circle cx="16942" cy="14403" r="144.9855"/>
    <circle cx="17844" cy="14403" r="144.9855"/>
    <circle cx="17844" cy="13244" r="144.9855"/>
    <circle cx="18451" cy="13244" r="144.9855"/>
    <circle cx="18451" cy="13003" r="144.9855"/>
    <circle cx="19837" cy="13003" r="144.9855"/>
    <circle cx="19837" cy="12032" r="144.9855"/>
    <circle cx="20615" cy="12032" r="144.9855"/>
    <circle cx="20615" cy="11292" r="144.9855"/>
    <circle cx="21581" cy="11292" r="144.9855"/>
    <circle cx="21581" cy="10689" r="144.9855"/>
    <circle cx="22643" cy="10689" r="144.9855"/>
    <circle cx="22643" cy="10214" r="144.9855"/>
    <circle cx="23783" cy="10214" r="144.9855"/>
    <circle cx="23783" cy="9256" r="144.9855"/>
    <circle cx="24608" cy="9256" r="144.9855"/>
    <circle cx="24608" cy="8332" r="144.9855"/>
    <circle cx="25475" cy="8332" r="144.9855"/>
    <circle cx="25475" cy="7886" r="144.9855"/>
    <circle cx="26628" cy="7886" r="144.9855"/>
    <circle cx="26628" cy="7649" r="144.9855"/>
    <circle cx="27881" cy="7649" r="144.9855"/>
    <circle cx="27881" cy="7321" r="144.9855"/>
    <circle cx="29068" cy="7321" r="144.9855"/>
    <circle cx="29068" cy="6086" r="144.9855"/>
    <circle cx="29826" cy="6086" r="144.9855"/>
    <circle cx="29826" cy="6310" r="144.9855"/>
    <circle cx="31254" cy="6310" r="144.9855"/>
    <circle cx="31254" cy="5316" r="144.9855"/>
    <circle cx="32154" cy="5316" r="144.9855"/>
    <circle cx="32154" cy="4703" r="144.9855"/>
    <circle cx="33227" cy="4703" r="144.9855"/>
    <circle cx="33227" cy="4507" r="144.9855"/>
    <circle cx="34453" cy="4507" r="144.9855"/>
    <circle cx="34453" cy="4398" r="144.9855"/>
    <circle cx="35695" cy="4398" r="144.9855"/>
    <circle cx="35695" cy="3408" r="144.9855"/>
    <circle cx="36672" cy="3408" r="144.9855"/>
    <circle cx="36672" cy="3522" r="144.9855"/>
    <circle cx="37969" cy="3522" r="144.9855"/>
    <circle cx="37969" cy="3685" r="144.9855"/>
    <circle cx="39256" cy="3685" r="144.9855"/>
    <circle cx="39256" cy="3353" r="144.9855"/>
    <circle cx="40417" cy="3353" r="144.9855"/>
    <circle cx="40417" cy="2886" r="144.9855"/>
    <circle cx="41559" cy="2886" r="144.9855"/>
    <circle cx="41559" cy="2933" r="144.9855"/>
    <circle cx="42793" cy="2933" r="144.9855"/>
    <circle cx="42793" cy="2141" r="144.9855"/>
    <circle cx="43908" cy="2141" r="144.9855"/>
    <circle cx="43908" cy="2680" r="144.9855"/>
    <circle cx="45191" cy="2680" r="144.9855"/>
    <circle cx="45191" cy="2586" r="144.9855"/>
    <circle cx="46392" cy="2586" r="144.9855"/>
    <circle cx="46392" cy="2000" r="144.9855"/>
    <circle cx="47569" cy="2000" r="144.9855"/>
    <circle cx="47569" cy="2086" r="144.9855"/>
    <circle cx="48789" cy="2086" r="144.9855"/>
    <circle cx="48789" cy="1768" r="144.9855"/>
    <circle cx="50003" cy="1768" r="144.9855"/>
    <circle cx="50003" cy="2094" r="144.9855"/>
    <circle cx="51217" cy="2094" r="144.9855"/>
    <circle cx="51217" cy="1726" r="144.9855"/>
    <circle cx="52451" cy="1726" r="144.9855"/>
    <circle cx="52451" cy="2521" r="144.9855"/>
    <circle cx="53618" cy="2521" r="144.9855"/>
    <circle cx="53618" cy="2184" r="144.9855"/>
    <circle cx="54865" cy="2184" r="144.9855"/>
    <circle cx="54865" cy="2001" r="144.9855"/>
    <circle cx="56116" cy="2001" r="144.9855"/>
    <circle cx="56116" cy="2192" r="144.9855"/>
    <circle cx="57327" cy="2192" r="144.9855"/>
    <circle cx="57327" cy="2984" r="144.9855"/>
    <circle cx="58430" cy="2984" r="144.9855"/>
    <circle cx="58430" cy="2640" r="144.9855"/>
    <circle cx="59735" cy="2640" r="144.9855"/>
    <circle cx="59735" cy="3676" r="144.9855"/>
    <circle cx="60752" cy="3676" r="144.9855"/>
    <circle cx="60752" cy="3891" r="144.9855"/>
    <circle cx="61941" cy="3891" r="144.9855"/>
    <circle cx="61941" cy="4311" r="144.9855"/>
    <circle cx="63076" cy="4311" r="144.9855"/>
    <circle cx="63076" cy="4651" r="144.9855"/>
    <circle cx="64231" cy="4651" r="144.9855"/>
    <circle cx="64231" cy="4383" r="144.9855"/>
    <circle cx="65595" cy="4383" r="144.9855"/>
    <circle cx="65595" cy="4870" r="144.9855"/>
    <circle cx="66717" cy="4870" r="144.9855"/>
    <circle cx="66717" cy="5195" r="144.9855"/>
    <circle cx="67900" cy="5195" r="144.9855"/>
    <circle cx="67900" cy="6130" r="144.9855"/>
    <circle cx="68829" cy="6130" r="144.9855"/>
    <circle cx="68829" cy="6542" r="144.9855"/>
    <circle cx="69971" cy="6542" r="144.9855"/>
    <circle cx="69971" cy="6459" r="144.9855"/>
    <circle cx="71361" cy="6459" r="144.9855"/>
    <circle cx="71361" cy="7583" r="144.9855"/>
    <circle cx="72160" cy="7583" r="144.9855"/>
    <circle cx="72160" cy="7855" r="144.9855"/>
    <circle cx="73395" cy="7855" r="144.9855"/>
    <circle cx="73395" cy="8368" r="144.9855"/>
    <circle cx="74511" cy="8368" r="144.9855"/>
    <circle cx="74511" cy="9474" r="144.9855"/>
    <circle cx="75263" cy="9474" r="144.9855"/>
    <circle cx="75263" cy="9687" r="144.9855"/>
    <circle cx="76572" cy="9687" r="144.9855"/>
    <circle cx="76572" cy="10635" r="144.9855"/>
    <circle cx="77402" cy="10635" r="144.9855"/>
    <circle cx="77402" cy="11650" r="144.9855"/>
    <circle cx="78164" cy="11650" r="144.9855"/>
    <circle cx="78164" cy="11759" r="144.9855"/>
    <circle cx="79604" cy="11759" r="144.9855"/>
    <circle cx="79604" cy="12930" r="144.9855"/>
    <circle cx="80230" cy="12930" r="144.9855"/>
    <circle cx="80230" cy="13733" r="144.9855"/>
    <circle cx="81138" cy="13733" r="144.9855"/>
    <circle cx="81138" cy="14741" r="144.9855"/>
    <circle cx="81859" cy="14741" r="144.9855"/>
    <circle cx="81859" cy="15311" r="144.9855"/>
    <circle cx="82978" cy="15311" r="144.9855"/>
    <circle cx="82978" cy="16332" r="144.9855"/>
    <circle cx="83672" cy="16332" r="144.9855"/>
    <circle cx="83672" cy="17169" r="144.9855"/>
    <circle cx="84542" cy="17169" r="144.9855"/>
    <circle cx="84542" cy="17714" r="144.9855"/>
    <circle cx="85740" cy="17714" r="144.9855"/>
    <circle cx="85740" cy="18612" r="144.9855"/>
    <circle cx="86566" cy="18612" r="144.9855"/>
    <circle cx="86566" cy="19436" r="144.9855"/>
    <circle cx="87488" cy="19436" r="144.9855"/>
    <circle cx="87488" cy="20859" r="144.9855"/>
    <circle cx="87651" cy="20859" r="144.9855"/>
    <circle cx="87651" cy="21393" r="144.9855"/>
    <circle cx="88962" cy="21393" r="144.9855"/>
    <circle cx="88962" cy="22570" r="144.9855"/>
    <circle cx="89415" cy="22570" r="144.9855"/>
    <circle cx="89415" cy="23635" r="144.9855"/>
    <circle cx="90009" cy="23635" r="144.9855"/>
    <circle cx="90009" cy="24534" r="144.9855"/>
    <circle cx="90862" cy="24534" r="144.9855"/>
    <circle cx="90862" cy="25593" r="144.9855"/>
    <circle cx="91467" cy="25593" r="144.9855"/>
    <circle cx="91467" cy="26849" r="144.9855"/>
    <circle cx="91716" cy="26849" r="144.9855"/>
    <circle cx="91716" cy="27581" r="144.9855"/>
    <circle cx="92925" cy="27581" r="144.9855"/>
    <circle cx="92925" cy="28721" r="144.9855"/>
    <circle cx="93386" cy="28721" r="144.9855"/>
    <circle cx="93386" cy="29770" r="144.9855"/>
    <circle cx="94036" cy="29770" r="144.9855"/>
    <circle cx="94036" cy="31222" r="144.9855"/>
    <circle cx="93764" cy="31222" r="144.9855"/>
    <circle cx="93764" cy="32377" r="144.9855"/>
    <circle cx="94126" cy="32377" r="144.9855"/>
    <circle cx="94126" cy="33274" r="144.9855"/>
    <circle cx="95169" cy="33274" r="144.9855"/>
    <circle cx="95169" cy="34393" r="144.9855"/>
    <circle cx="95668" cy="34393" r="144.9855"/>
    <circle cx="95668" cy="35730" r="144.9855"/>
    <circle cx="95490" cy="35730" r="144.9855"/>
    <circle cx="95490" cy="36882" r="144.9855"/>
    <circle cx="95855" cy="36882" r="144.9855"/>
    <circle cx="95855" cy="38072" r="144.9855"/>
    <circle cx="96081" cy="38072" r="144.9855"/>
    <circle cx="96081" cy="39252" r="144.9855"/>
    <circle cx="96327" cy="39252" r="144.9855"/>
    <circle cx="96327" cy="40429" r="144.9855"/>
    <circle cx="96585" cy="40429" r="144.9855"/>
    <circle cx="96585" cy="41595" r="144.9855"/>
    <circle cx="96912" cy="41595" r="144.9855"/>
    <circle cx="96912" cy="42771" r="144.9855"/>
    <circle cx="97206" cy="42771" r="144.9855"/>
    <circle cx="97206" cy="43958" r="144.9855"/>
    <circle cx="97461" cy="43958" r="144.9855"/>
    <circle cx="97461" cy="45166" r="144.9855"/>
    <circle cx="97568" cy="45166" r="144.9855"/>
    <circle cx="97568" cy="46336" r="144.9855"/>
    <circle cx="98146" cy="46336" r="144.9855"/>
    <circle cx="98146" cy="47589" r="144.9855"/>
    <circle cx="97604" cy="47589" r="144.9855"/>
    <circle cx="97604" cy="48791" r="144.9855"/>
    <circle cx="97828" cy="48791" r="144.9855"/>
    <circle cx="97828" cy="50003" r="144.9855"/>
  </g>
  <!-- <polygon points="95169,34393 95169,65382 4109,65682 4109,34393" fill="none" stroke="blue" stroke-width="96.65700000000001"/> -->
  <polygon points="95169,33274 95169,65382 5112,65682 5112,33274" fill="none" stroke="blue" stroke-width="96.65700000000001"/>
</svg>
